<?xml version="1.0" standalone="no"?>
<!DOCTYPE svg PUBLIC "-//W3C//DTD SVG 20010904//EN"
 "http://www.w3.org/TR/2001/REC-SVG-20010904/DTD/svg10.dtd">
<svg version="1.0" xmlns="http://www.w3.org/2000/svg"
 width="260.000000pt" height="260.000000pt" viewBox="0 0 260.000000 260.000000"
 preserveAspectRatio="xMidYMid meet">
<metadata>
Created by potrace 1.14, written by Peter Selinger 2001-2017
</metadata>
<g transform="translate(0.000000,260.000000) scale(0.100000,-0.100000)"
fill="#000000" stroke="none">
<path d="M1225 2271 c-38 -11 -95 -29 -125 -40 -164 -59 -162 -58 -373 -195
-134 -88 -383 -341 -484 -495 -100 -150 -136 -223 -179 -363 -34 -110 -36
-124 -32 -225 2 -85 8 -117 24 -148 12 -22 29 -56 39 -75 28 -55 168 -182 253
-231 l77 -44 128 -3 c155 -4 210 9 395 99 68 32 126 59 128 59 3 0 37 20 75
45 l70 45 47 -38 c26 -21 61 -47 78 -58 66 -40 157 -99 168 -109 34 -30 70
-46 94 -41 15 3 21 3 14 -1 -24 -9 76 -58 198 -97 207 -65 386 -67 504 -5 58
30 137 100 149 133 4 9 25 44 48 78 51 74 69 131 69 212 0 140 -85 331 -208
469 -31 35 -68 77 -82 93 -14 16 -48 47 -75 68 -28 22 -65 54 -82 71 -18 17
-63 49 -100 71 -93 54 -145 93 -138 104 3 5 6 51 6 102 1 97 -14 154 -61 248
-25 50 -173 201 -222 226 -116 60 -282 78 -403 45z m255 -32 c41 -6 85 -11 97
-11 13 0 23 -8 27 -20 3 -14 10 -19 20 -15 11 4 16 1 16 -12 0 -10 8 -29 18
-42 10 -13 24 -51 30 -84 14 -76 22 -236 12 -230 -8 5 -18 -32 -18 -70 0 -11
-17 -49 -36 -84 -20 -34 -36 -65 -36 -68 0 -15 -92 -187 -113 -211 -7 -9 -17
-26 -21 -36 -5 -14 -10 -16 -18 -8 -8 8 -1 22 26 53 20 23 36 47 35 53 0 6 -6
3 -12 -8 -7 -10 -27 -36 -44 -58 -18 -22 -33 -45 -33 -51 0 -7 5 -5 10 3 8 13
10 12 10 -2 0 -10 -6 -18 -14 -18 -7 0 -25 -18 -39 -39 -22 -33 -24 -40 -11
-45 8 -3 12 -1 9 4 -6 10 35 73 43 65 2 -2 -5 -17 -17 -33 -11 -16 -18 -32
-15 -35 3 -3 3 -11 -1 -17 -5 -8 -11 -7 -22 2 -12 10 -22 4 -59 -35 l-43 -47
-21 22 -20 22 23 24 c12 13 42 44 65 68 24 24 41 47 38 53 -3 5 1 12 10 15 9
3 14 12 11 19 -2 7 13 32 35 57 21 25 36 36 32 25 -6 -16 -3 -15 13 5 34 44
153 286 153 313 0 8 7 20 15 27 8 7 15 22 15 34 0 17 -2 18 -10 6 -5 -8 -12
-11 -16 -8 -4 4 1 19 10 32 9 14 16 39 16 55 0 16 6 32 13 35 10 5 10 7 0 12
-7 3 -13 13 -13 22 0 15 2 15 10 2 8 -13 10 -13 10 2 0 26 -47 128 -59 128 -6
0 -13 11 -17 24 -6 24 -44 68 -44 51 0 -4 -9 0 -21 11 -18 16 -37 19 -133 19
-117 -1 -190 -10 -182 -24 3 -4 -5 -6 -17 -4 -23 5 -103 -30 -222 -97 -60 -33
-91 -56 -162 -117 -21 -18 -42 -33 -47 -33 -10 0 -77 -56 -128 -107 -20 -21
-43 -38 -50 -38 -7 -1 -12 -7 -10 -14 1 -7 -1 -10 -6 -7 -9 5 -71 -53 -71 -67
-1 -12 -74 -97 -85 -97 -13 0 -35 -32 -36 -51 0 -9 -7 -22 -16 -29 -8 -8 -19
-22 -25 -31 -8 -17 -6 -18 21 -13 36 8 36 6 9 -40 -12 -20 -17 -36 -12 -36 4
0 16 14 26 31 10 18 20 29 24 26 3 -4 0 -13 -7 -22 -7 -9 -11 -18 -8 -20 4 -4
48 70 48 80 0 2 -11 2 -25 -1 -24 -4 -31 5 -25 31 2 6 2 18 2 27 0 9 7 23 16
30 15 12 16 11 3 -4 -11 -14 -11 -21 -1 -33 7 -8 17 -12 22 -9 6 4 5 10 -3 15
-10 6 -7 8 9 6 25 -2 25 -2 43 -130 12 -84 11 -89 -10 -130 -12 -23 -15 -33
-7 -23 10 12 16 15 16 7 0 -7 -13 -29 -30 -48 -17 -18 -30 -41 -30 -49 0 -8
-17 -41 -37 -72 -53 -81 -91 -175 -99 -243 -7 -64 -23 -70 -25 -11 -2 29 -3
31 -6 11 -4 -24 -7 -26 -31 -20 -22 6 -27 13 -27 38 -1 27 2 30 17 22 11 -6
18 -6 18 0 0 5 -7 11 -15 15 -8 3 -15 17 -15 31 0 24 1 25 16 11 8 -9 18 -16
20 -16 7 0 -15 38 -26 45 -10 6 7 60 35 115 9 17 14 37 12 43 -4 12 -67 -115
-67 -135 0 -6 -6 -5 -16 3 -10 8 -13 21 -9 38 19 82 37 131 48 131 12 1 47 62
47 83 0 7 -7 3 -15 -7 -11 -15 -15 -16 -15 -5 0 19 29 59 30 41 0 -19 17 -6
23 17 10 41 -60 14 -85 -33 -7 -13 -7 -16 1 -12 6 4 11 4 11 0 0 -10 -43 -79
-52 -82 -4 -2 -16 -34 -27 -70 -29 -98 -23 -234 12 -295 30 -50 52 -71 66 -63
5 3 11 1 13 -4 2 -6 23 -16 48 -21 24 -6 48 -15 51 -21 6 -9 19 -8 50 1 33 10
43 10 49 1 10 -16 91 -5 145 20 45 20 135 54 150 56 6 1 16 2 23 3 7 0 10 6 6
13 -4 7 -3 8 4 4 12 -7 142 62 142 76 0 4 7 8 15 8 8 0 15 4 15 10 0 5 9 2 20
-7 19 -16 18 -17 -12 -39 -17 -13 -37 -32 -45 -43 -8 -12 -18 -21 -24 -21 -5
0 -28 -9 -52 -19 -23 -11 -73 -31 -111 -46 -38 -15 -77 -31 -85 -35 -9 -5 -56
-15 -106 -24 -80 -14 -98 -15 -165 -2 -42 8 -89 20 -105 27 -17 6 -37 12 -45
13 -24 2 -58 30 -71 59 -7 15 -18 27 -26 27 -15 0 -17 12 -3 26 6 6 6 22 0 44
-6 19 -10 52 -10 72 0 39 -15 52 -23 21 -3 -12 -5 -10 -6 7 0 14 6 39 15 55 9
17 19 62 21 100 3 39 14 87 25 108 10 21 17 46 14 55 -3 9 -1 24 5 32 8 12 9
10 4 -7 -8 -29 11 -30 20 -2 8 25 73 137 93 162 9 9 12 20 8 24 -3 4 6 20 21
35 15 16 28 36 28 45 0 9 9 21 20 27 33 19 47 35 39 47 -4 7 -3 9 4 5 10 -6
43 33 55 67 4 9 14 20 24 24 10 4 57 47 106 95 49 48 94 88 101 88 6 0 34 20
61 45 28 25 55 45 62 45 6 0 36 20 66 45 31 25 62 45 70 45 8 0 30 11 50 25
79 53 171 84 274 94 136 12 157 12 243 0z m210 -92 c0 -20 -25 1 -28 24 -2 23
-2 23 13 5 8 -11 15 -24 15 -29z m-520 13 c-8 -5 -19 -10 -25 -10 -5 0 -3 5 5
10 8 5 20 10 25 10 6 0 3 -5 -5 -10z m-70 -30 c-8 -5 -19 -10 -25 -10 -5 0 -3
5 5 10 8 5 20 10 25 10 6 0 3 -5 -5 -10z m684 -77 c12 -16 14 -24 6 -21 -16 5
-46 48 -34 48 5 0 18 -12 28 -27z m-848 -8 c-11 -8 -25 -15 -30 -15 -6 1 0 7
14 15 32 19 40 18 16 0z m904 -69 c0 -5 -7 -1 -15 10 -8 10 -14 24 -14 29 0 6
6 1 14 -9 8 -11 15 -24 15 -30z m-224 -12 c9 -35 -1 -113 -20 -159 -15 -35
-18 -37 -49 -31 -214 44 -419 23 -504 -52 -50 -45 -125 -143 -119 -158 7 -18
-7 -56 -29 -78 -19 -19 -45 -105 -45 -151 0 -29 46 -220 57 -238 3 -5 10 -3
15 4 7 11 8 10 4 -4 -3 -10 3 -36 15 -59 l21 -40 -28 -29 c-15 -15 -43 -36
-63 -45 -20 -10 -65 -35 -101 -57 -127 -78 -191 -99 -321 -104 -137 -6 -136
-7 -119 100 19 123 98 297 186 414 30 40 54 76 54 81 0 5 12 19 26 33 15 13
53 55 86 92 55 64 58 70 41 83 -10 7 -13 14 -6 14 6 0 15 -4 18 -10 11 -17 19
-12 98 64 43 41 103 91 135 112 31 21 84 59 117 84 33 26 69 49 80 52 11 4 58
22 105 42 118 49 183 65 267 65 70 1 73 0 79 -25z m-346 -24 c-8 -5 -19 -10
-25 -10 -5 0 -3 5 5 10 8 5 20 10 25 10 6 0 3 -5 -5 -10z m604 -60 c5 -17 4
-20 -2 -10 -5 8 -13 26 -16 40 -5 17 -4 20 2 10 5 -8 13 -26 16 -40z m-14
-116 c9 -44 9 -69 0 -108 -7 -28 -13 -65 -14 -83 0 -17 -4 -29 -7 -27 -8 5
-30 -75 -26 -96 1 -8 -1 -16 -5 -17 -5 -2 -17 -12 -28 -23 -27 -27 -34 -26
-76 13 -29 26 -34 36 -27 55 9 23 9 22 51 -14 24 -20 46 -33 50 -30 3 4 -9 19
-28 34 -19 15 -45 37 -57 49 -12 12 -33 24 -45 28 -22 7 -22 6 2 -11 14 -9 27
-19 28 -20 3 -2 -15 -39 -35 -73 -2 -2 -6 -2 -9 1 -3 4 0 17 6 30 11 22 11 22
-9 -2 -15 -18 -17 -28 -9 -38 9 -10 7 -17 -7 -30 -10 -9 -15 -12 -11 -5 3 6 2
14 -3 18 -11 6 -9 70 2 81 4 4 7 18 7 30 0 13 4 25 9 29 15 9 61 96 61 116 0
10 8 26 19 36 10 10 22 29 26 43 12 39 25 51 44 40 16 -8 44 0 42 14 -4 30 0
36 18 26 13 -6 24 -29 31 -66z m-858 24 c-6 -7 -24 -21 -41 -31 -26 -15 -30
-15 -25 -3 3 9 9 14 13 12 4 -3 18 4 31 15 29 22 37 24 22 7z m-241 -15 c13
-16 12 -17 -3 -4 -10 7 -18 15 -18 17 0 8 8 3 21 -13z m672 -12 c77 -18 108
-34 94 -47 -4 -4 -33 -1 -66 6 -32 7 -79 10 -102 7 -24 -4 -72 -8 -106 -11
-144 -12 -223 -106 -194 -231 11 -45 16 -74 20 -120 0 -8 9 -22 19 -32 23 -23
66 -93 57 -93 -4 0 4 -15 19 -34 14 -19 26 -38 26 -41 0 -17 45 -67 66 -76 14
-5 28 -19 33 -31 14 -36 174 -178 200 -178 5 0 19 -12 31 -27 25 -33 74 -66
117 -81 18 -6 52 -24 75 -40 61 -42 119 -68 214 -97 112 -34 148 -31 52 5 -42
15 -122 51 -177 79 -55 28 -105 51 -110 51 -16 0 -153 96 -185 129 -28 29 -28
32 -13 49 9 10 17 23 17 28 0 5 36 50 80 99 44 50 80 94 80 99 0 11 93 135
101 136 4 0 30 -16 58 -35 51 -35 78 -45 65 -23 -4 7 -3 8 5 4 6 -4 9 -11 7
-15 -3 -4 27 -36 67 -71 225 -204 313 -324 354 -482 10 -37 14 -71 9 -75 -4
-4 -69 -7 -144 -5 -74 1 -133 -1 -129 -4 3 -4 46 -10 94 -15 48 -4 103 -11
121 -15 22 -4 40 -1 57 10 14 9 38 18 54 20 36 4 95 65 109 114 13 48 9 94
-17 166 -12 33 -21 65 -21 73 0 31 -55 121 -101 165 -27 26 -49 50 -49 54 0
11 -203 214 -214 214 -13 1 -66 46 -66 57 -1 4 -28 28 -60 52 -33 25 -60 49
-60 53 0 18 39 6 98 -32 34 -22 62 -35 62 -30 0 5 7 7 15 4 8 -4 15 -13 15
-21 0 -19 43 -57 106 -94 47 -27 74 -54 114 -114 22 -34 70 -95 107 -138 18
-20 33 -43 33 -51 0 -8 12 -29 26 -46 15 -17 28 -45 30 -61 2 -17 7 -36 11
-42 4 -7 8 -16 9 -22 24 -122 27 -156 16 -192 -17 -58 -73 -117 -129 -137 -26
-10 -59 -23 -73 -31 -18 -9 -47 -12 -95 -9 -39 3 -97 5 -130 5 -94 0 -227 43
-350 113 -38 22 -77 40 -85 41 -20 2 -117 52 -125 65 -3 5 -15 10 -26 10 -11
0 -22 6 -25 13 -6 16 -60 58 -77 61 -25 4 -57 27 -57 41 0 8 -15 25 -32 39
-68 52 -139 125 -152 158 -8 18 -30 51 -50 71 -20 21 -37 44 -38 50 0 7 -2 17
-2 22 -1 6 -16 36 -34 67 -18 31 -34 70 -36 86 -3 16 -13 49 -24 73 -17 38
-18 53 -10 109 6 36 14 72 19 80 5 8 15 29 24 45 8 17 23 31 33 32 9 0 42 10
72 21 101 36 115 40 155 41 22 0 75 -8 118 -18z m-863 -4 c0 -2 -12 -14 -27
-28 l-28 -24 24 28 c23 25 31 32 31 24z m170 -11 c-7 -7 -13 -7 -20 0 -6 6 -3
10 10 10 13 0 16 -4 10 -10z m65 4 c3 -5 2 -10 -4 -10 -5 0 -13 5 -16 10 -3 6
-2 10 4 10 5 0 13 -4 16 -10z m115 -20 c0 -5 -2 -10 -4 -10 -2 0 -12 -3 -22
-7 -16 -6 -17 -5 -4 10 17 19 30 22 30 7z m-300 -4 c0 -3 -4 -8 -10 -11 -5 -3
-10 -1 -10 4 0 6 5 11 10 11 6 0 10 -2 10 -4z m88 -14 c-9 -10 -8 -16 2 -22 8
-5 17 -7 21 -5 3 3 15 -5 25 -16 17 -19 17 -20 -4 -26 -12 -3 -19 -10 -15 -15
3 -6 1 -9 -4 -7 -14 5 -96 80 -91 83 31 25 85 32 66 8z m71 -14 l22 -33 -24
27 c-19 21 -27 24 -38 15 -11 -10 -11 -9 0 6 7 9 14 17 15 17 1 0 12 -15 25
-32z m-59 -96 c0 -3 -7 -14 -17 -24 -13 -14 -13 -18 -2 -18 11 -1 11 -3 -2
-13 -26 -21 -129 -150 -129 -163 0 -6 -6 -17 -14 -23 -12 -10 -15 -3 -21 41
-3 29 -9 67 -12 83 -3 17 -2 27 3 22 4 -4 11 -26 15 -50 6 -41 7 -42 8 -7 1
28 4 32 12 20 8 -12 9 -10 5 10 -3 14 -6 36 -7 50 l-1 25 -7 -25 c-7 -24 -8
-23 -14 11 -8 39 0 72 14 63 5 -3 9 -10 9 -15 0 -6 -4 -7 -10 -4 -5 3 -10 -3
-10 -15 0 -12 4 -18 11 -15 5 4 26 -10 46 -30 19 -20 37 -34 40 -32 2 3 -12
21 -32 40 -39 38 -50 92 -25 122 12 14 15 14 32 -2 10 -9 17 -22 14 -29 -3 -7
0 -11 7 -8 7 2 23 -5 36 -17 12 -11 24 -19 27 -17 2 3 -5 13 -16 23 -11 10
-20 24 -20 32 0 7 -6 13 -14 13 -16 0 -38 24 -29 33 6 6 103 -69 103 -81z
m120 84 c0 -2 -8 -10 -17 -17 -16 -13 -17 -12 -4 4 13 16 21 21 21 13z m180
-30 c0 -2 -13 -20 -29 -40 -16 -21 -32 -42 -34 -49 -2 -7 -7 -9 -11 -6 -3 3
10 27 29 52 32 42 45 54 45 43z m-242 -41 c-7 -15 -19 -25 -32 -25 -19 1 -19
2 4 15 14 8 21 15 15 15 -5 0 -3 5 5 10 21 13 21 13 8 -15z m527 -15 c3 -6 -1
-7 -9 -4 -18 7 -21 14 -7 14 6 0 13 -4 16 -10z m-67 -40 c-8 -13 -23 -20 -43
-20 l-30 1 40 19 c22 11 41 19 43 20 1 0 -3 -9 -10 -20z m82 10 c6 10 10 11
10 3 0 -7 7 -13 15 -13 8 0 15 -4 15 -9 0 -5 -13 -9 -30 -9 -16 1 -30 4 -30 8
0 4 -11 6 -25 5 -14 -2 -23 1 -20 5 3 5 12 7 20 3 9 -3 15 1 15 8 0 11 3 11
10 -1 9 -13 11 -13 20 0z m30 -71 c26 -6 55 -16 64 -22 16 -11 14 -16 -13 -54
-19 -26 -28 -49 -25 -60 4 -12 3 -14 -3 -6 -9 12 -60 -39 -105 -106 -10 -14
-18 -22 -18 -17 0 5 -7 3 -15 -4 -13 -11 -20 -9 -41 11 -39 37 -96 162 -97
216 -2 42 1 48 23 54 30 10 162 3 230 -12z m330 -74 c0 -8 9 -19 20 -25 32
-17 40 -42 23 -70 -8 -14 -12 -18 -9 -9 3 13 0 15 -15 12 -11 -3 -19 0 -19 7
0 7 -11 21 -25 32 -27 21 -24 44 4 33 12 -5 13 -3 4 6 -6 6 -9 18 -6 25 6 17
23 8 23 -11z m-795 -94 c0 -60 -4 -103 -8 -95 -14 24 -8 204 7 204 1 0 2 -49
1 -109z m683 37 c16 -16 15 -31 0 -25 -21 7 -15 -58 6 -82 37 -41 -3 -20 -49
25 -45 44 -46 46 -30 65 10 10 21 16 26 14 4 -3 10 -1 14 5 8 13 18 13 33 -2z
m84 -10 c7 -13 11 -27 9 -33 -1 -5 0 -7 4 -3 4 3 16 -3 27 -14 18 -18 18 -21
3 -44 -8 -13 -13 -24 -11 -24 3 0 -6 -11 -20 -25 -23 -23 -27 -24 -45 -11 -13
9 -16 16 -10 21 6 3 11 1 11 -6 0 -10 3 -10 12 -1 9 9 9 15 -3 24 -11 10 -14
29 -11 76 4 66 13 76 34 40z m428 -47 c-5 -11 -15 -23 -20 -26 -18 -11 -10
-26 10 -20 26 8 27 -16 0 -32 -13 -9 -21 -9 -26 -2 -3 6 -15 9 -25 6 -27 -7
-24 -2 22 48 45 49 55 56 39 26z m-494 -28 c-11 -11 -17 4 -9 23 7 18 8 18 11
1 2 -10 1 -21 -2 -24z m454 30 c-1 -15 -41 -56 -47 -49 -4 4 -1 11 7 17 13 8
13 10 0 20 -13 9 -12 10 2 5 10 -3 20 -1 23 4 7 12 15 13 15 3z m-507 -49 c45
-43 57 -64 39 -64 -5 0 -17 9 -26 19 -11 12 -25 17 -38 13 -16 -4 -19 -2 -13
8 6 9 4 11 -4 6 -7 -5 -21 0 -31 9 -15 14 -17 20 -7 36 17 27 26 24 80 -27z
m607 21 c13 -14 21 -25 18 -25 -2 0 -15 11 -28 25 -13 14 -21 25 -18 25 2 0
15 -11 28 -25z m-1178 3 c21 21 31 13 14 -13 -18 -28 -11 -33 13 -11 11 10 21
12 31 6 12 -8 11 -12 -8 -30 -12 -11 -22 -24 -22 -27 0 -3 8 1 18 10 34 31 38
28 164 -143 35 -46 90 -106 123 -132 33 -27 60 -52 60 -56 3 -30 20 -51 45
-57 16 -4 39 -20 51 -36 11 -16 25 -26 31 -23 7 4 8 -2 3 -17 -7 -21 -6 -22 9
-10 14 11 16 11 16 -2 0 -9 5 -19 12 -23 7 -4 8 -3 4 4 -4 8 -2 10 8 6 9 -3
12 -12 9 -22 -5 -12 -2 -14 11 -9 10 4 15 3 11 -3 -6 -10 -5 -11 32 -15 12 -1
34 -10 48 -19 14 -9 29 -15 33 -12 4 3 14 1 22 -5 11 -6 12 -9 2 -9 -7 0 -10
-5 -6 -12 4 -7 3 -8 -4 -4 -7 4 -12 1 -12 -8 0 -23 -47 -5 -129 48 -39 25 -71
42 -71 37 0 -14 82 -67 153 -99 37 -17 67 -34 67 -38 0 -16 -54 -64 -72 -64
-26 0 -22 12 12 39 34 27 37 36 13 37 -10 1 -27 4 -38 8 -15 5 -14 4 3 -5 12
-7 22 -16 22 -21 0 -19 -29 -18 -61 1 -19 12 -38 21 -44 21 -14 -1 37 -40 53
-40 14 0 17 -20 3 -20 -5 0 -16 7 -25 15 -8 8 -19 15 -25 15 -6 0 -16 9 -23
20 -7 11 -24 20 -38 20 -42 0 -67 26 -79 80 -6 28 -11 67 -11 85 0 19 -4 35
-10 35 -6 0 -10 -27 -10 -60 0 -33 -4 -60 -9 -60 -4 0 -30 21 -57 47 -27 25
-55 48 -63 49 -17 3 -190 187 -208 221 -6 13 -27 43 -46 66 -46 56 -64 93 -72
147 -7 52 10 114 25 90 7 -12 12 -12 22 -2z m1143 2 c3 -5 1 -10 -4 -10 -6 0
-11 5 -11 10 0 6 2 10 4 10 3 0 8 -4 11 -10z m35 -35 c11 -13 10 -14 -4 -9 -9
3 -16 10 -16 15 0 13 6 11 20 -6z m-670 -25 c13 -11 20 -23 15 -28 -4 -4 -10
-1 -12 6 -3 6 -10 12 -18 12 -7 0 -18 7 -25 15 -19 23 12 19 40 -5z m668 4
c20 -14 26 -12 23 9 0 4 4 7 9 7 14 0 13 -13 -2 -29 -11 -10 -9 -15 6 -26 17
-13 17 -15 2 -37 -28 -39 -17 -40 16 -1 18 21 33 39 33 40 3 6 55 -23 55 -30
0 -4 -23 -30 -51 -57 -28 -28 -46 -50 -40 -50 6 0 33 23 59 50 53 55 62 60 62
30 0 -11 -4 -20 -10 -20 -5 0 -10 -5 -10 -11 0 -8 4 -8 14 0 10 9 16 8 26 -4
7 -9 19 -14 27 -11 14 6 53 -30 53 -48 0 -6 -5 -18 -10 -26 -7 -12 -12 -9 -22
15 -7 17 -19 31 -26 33 -15 3 -11 -6 24 -53 12 -16 34 -54 49 -83 20 -38 30
-50 36 -40 7 10 9 10 9 -3 0 -8 -13 -36 -30 -62 -16 -26 -25 -47 -20 -47 5 0
17 14 27 30 17 29 33 39 33 21 0 -5 -7 -11 -15 -15 -8 -3 -15 -10 -15 -16 0
-6 5 -8 12 -4 7 4 8 3 4 -5 -4 -6 -12 -9 -17 -6 -5 4 -9 -2 -9 -12 0 -10 -12
-31 -26 -48 -14 -18 -21 -22 -16 -10 5 11 7 26 4 34 -3 8 0 11 6 7 6 -3 14 -1
18 5 4 7 3 9 -2 6 -6 -3 -16 -2 -23 2 -11 7 -8 15 10 40 12 17 20 33 17 37 -4
3 -18 -11 -32 -32 -17 -25 -22 -40 -15 -45 8 -5 8 -8 0 -13 -19 -12 -25 42 -7
69 9 14 20 25 25 25 5 0 11 11 13 25 3 15 1 22 -5 18 -6 -3 -15 0 -21 8 -6 8
-22 23 -36 34 -20 17 -19 13 7 -21 l32 -40 -21 -33 c-20 -31 -22 -32 -35 -15
-16 22 -16 38 -2 67 9 20 9 21 -4 4 -14 -17 -18 -15 -61 28 -25 26 -46 51 -46
56 0 5 -5 9 -12 9 -15 0 -48 30 -48 43 0 6 9 2 20 -8 29 -26 25 -3 -5 25 -13
12 -24 25 -23 29 2 19 -5 28 -32 45 l-30 17 20 29 c24 33 26 48 5 30 -12 -10
-18 -10 -30 0 -14 12 -14 15 1 31 21 23 24 23 52 3z m-48 -65 c0 -16 -31 -9
-37 9 -4 9 -12 21 -20 25 -7 4 -13 12 -13 18 0 6 16 -2 35 -17 19 -14 35 -30
35 -35z m124 53 c2 -4 1 -14 -4 -22 -7 -11 -12 -12 -21 -3 -6 6 -8 16 -5 22 8
13 23 14 30 3z m-778 -13 c10 -17 -13 -36 -27 -22 -12 12 -4 33 11 33 5 0 12
-5 16 -11z m134 -49 c0 -5 -7 -7 -15 -4 -8 4 -15 1 -15 -5 0 -6 5 -11 10 -11
6 0 10 -5 10 -12 0 -7 -16 3 -35 22 -33 32 -34 35 -18 53 17 18 18 18 40 -8
13 -14 23 -30 23 -35z m-170 -15 c-16 -19 -24 -12 -26 25 -2 28 -1 28 19 10
17 -16 18 -22 7 -35z m220 23 c0 -5 -4 -8 -10 -8 -5 0 -10 10 -10 23 0 18 2
19 10 7 5 -8 10 -18 10 -22z m-103 -33 c36 -34 43 -51 14 -35 -13 7 -22 7 -26
0 -3 -5 1 -10 9 -10 8 0 17 -3 19 -7 8 -12 -46 -13 -60 -1 -7 6 -13 6 -13 1 0
-5 6 -15 13 -23 6 -8 2 -6 -10 4 -13 10 -20 24 -16 30 3 7 1 6 -7 -1 -11 -10
-11 -15 1 -30 12 -16 11 -16 -8 1 -21 17 -21 20 -6 43 11 17 19 21 26 14 17
-17 31 -13 17 4 -7 8 -10 22 -6 31 5 12 1 14 -16 8 -20 -6 -21 -5 -9 10 15 18
21 15 78 -39z m-597 -10 c0 -5 -5 -3 -10 5 -5 8 -10 20 -10 25 0 6 5 3 10 -5
5 -8 10 -19 10 -25z m1164 -4 c31 -34 3 -24 -30 10 -21 23 -23 29 -9 21 11 -5
29 -20 39 -31z m-1664 21 c0 -5 -7 -17 -15 -28 -14 -18 -14 -17 -4 9 12 27 19
34 19 19z m1010 -1 c0 -13 -26 -32 -33 -24 -8 7 11 33 24 33 5 0 9 -4 9 -9z
m-45 -31 c3 -6 -1 -7 -9 -4 -18 7 -21 14 -7 14 6 0 13 -4 16 -10z m-386 -100
c11 -22 9 -22 -14 5 -38 44 -55 77 -23 45 14 -14 30 -36 37 -50z m-819 -23 c0
-12 -5 -29 -10 -37 -7 -11 -10 -3 -10 28 0 26 4 41 10 37 6 -3 10 -16 10 -28z
m2254 -24 c9 -18 14 -33 12 -33 -6 0 -36 55 -36 66 0 11 5 3 24 -33z m-100
-168 c3 -8 1 -15 -4 -15 -6 0 -10 7 -10 15 0 8 2 15 4 15 2 0 6 -7 10 -15z
m-1310 -1 c9 -3 16 -14 16 -24 0 -11 5 -22 10 -25 11 -7 4 -25 -8 -25 -4 1
-20 12 -37 26 -16 15 -22 24 -13 21 22 -8 35 12 17 24 -16 10 -8 12 15 3z
m-914 -14 c0 -5 -4 -10 -10 -10 -5 0 -10 5 -10 10 0 6 5 10 10 10 6 0 10 -4
10 -10z m965 -21 c11 -17 -1 -21 -15 -4 -8 9 -8 15 -2 15 6 0 14 -5 17 -11z
m-548 -5 c-3 -3 -12 -4 -19 -1 -8 3 -5 6 6 6 11 1 17 -2 13 -5z m789 -69 c6
-5 9 -16 6 -23 -2 -8 -23 4 -55 35 -29 26 -54 51 -55 56 -4 8 85 -50 104 -68z
m-1185 48 c13 -16 12 -17 -3 -4 -17 13 -22 21 -14 21 2 0 10 -8 17 -17z m884
-13 c10 -11 16 -20 13 -20 -3 0 -13 9 -23 20 -10 11 -16 20 -13 20 3 0 13 -9
23 -20z m1385 16 c0 -3 -4 -8 -10 -11 -5 -3 -10 -1 -10 4 0 6 5 11 10 11 6 0
10 -2 10 -4z m-1400 -55 c-6 -11 -4 -22 7 -33 27 -31 0 -19 -42 17 l-40 35 39
-5 39 -4 -19 22 -19 22 22 -19 c16 -14 20 -23 13 -35z m100 32 c0 -5 -5 -15
-10 -23 -7 -12 -9 -10 -7 8 1 19 17 33 17 15z m-229 -20 c13 -16 12 -17 -3 -4
-10 7 -18 15 -18 17 0 8 8 3 21 -13z m-682 -37 c-2 -2 -13 8 -23 22 l-19 27
24 -22 c12 -12 21 -24 18 -27z m66 13 c4 -6 22 -8 44 -5 20 4 42 2 50 -3 9 -6
-5 -8 -40 -7 -51 2 -99 21 -99 39 0 10 36 -9 45 -24z m680 1 c10 -11 16 -20
13 -20 -3 0 -13 9 -23 20 -10 11 -16 20 -13 20 3 0 13 -9 23 -20z m805 -16 c0
-2 -9 0 -20 6 -11 6 -20 13 -20 16 0 2 9 0 20 -6 11 -6 20 -13 20 -16z m-680
1 c0 -11 -31 -11 -39 -1 -9 10 -6 12 14 8 14 -2 25 -6 25 -7z m-79 -22 c13
-16 12 -17 -3 -4 -10 7 -18 15 -18 17 0 8 8 3 21 -13z m-70 -10 c13 -16 12
-17 -3 -4 -10 7 -18 15 -18 17 0 8 8 3 21 -13z m844 -3 c3 -5 0 -7 -8 -4 -8 3
-18 1 -21 -5 -4 -6 5 -13 19 -17 36 -9 31 -27 -20 -72 -42 -37 -55 -54 -37
-50 10 2 62 -20 62 -27 0 -5 -44 10 -78 27 l-22 12 32 33 c17 18 38 33 45 33
7 0 13 8 13 18 0 13 -7 18 -21 18 -30 -1 -34 18 -7 32 30 14 35 14 43 2z
m-737 -15 c-2 -1 -19 -10 -38 -19 -26 -13 -30 -13 -15 -2 11 8 25 19 30 24 6
5 14 7 18 5 5 -3 7 -6 5 -8z m-713 -15 c3 -5 2 -10 -4 -10 -5 0 -13 5 -16 10
-3 6 -2 10 4 10 5 0 13 -4 16 -10z m1503 -28 c-5 -13 -84 -82 -94 -82 -4 0 12
20 36 45 40 41 67 58 58 37z m-1433 -12 c8 -13 -5 -13 -25 0 -13 8 -13 10 2
10 9 0 20 -4 23 -10z m1471 -2 c4 -6 3 -8 -3 -5 -5 3 -27 -12 -48 -33 -22 -22
-44 -40 -49 -40 -6 0 10 20 34 45 47 48 55 52 66 33z m-17 -45 c-12 -15 -12
-16 3 -10 10 3 20 1 24 -5 4 -7 3 -8 -4 -4 -7 4 -12 2 -12 -3 0 -8 -7 -7 -20
1 -18 11 -18 14 -3 30 20 23 31 15 12 -9z m368 21 c-3 -3 -12 -4 -19 -1 -8 3
-5 6 6 6 11 1 17 -2 13 -5z m-313 -16 c-3 -4 -11 -5 -19 -1 -21 7 -19 12 4 10
11 0 18 -5 15 -9z m541 -54 c-41 -32 -51 -19 -12 16 18 16 34 24 36 18 2 -7
-9 -22 -24 -34z m-615 16 c8 -5 11 -13 6 -17 -5 -4 -11 -3 -13 4 -2 7 -11 9
-20 6 -11 -4 -14 -2 -9 5 9 14 16 15 36 2z m-25 -30 c-3 -5 -11 -10 -16 -10
-6 0 -7 5 -4 10 3 6 11 10 16 10 6 0 7 -4 4 -10z m85 6 c0 -3 -4 -8 -10 -11
-5 -3 -10 -1 -10 4 0 6 5 11 10 11 6 0 10 -2 10 -4z m-141 -32 c14 -12 -19 -1
-35 12 -18 14 -18 14 6 3 14 -6 27 -13 29 -15z m86 -30 c24 -11 25 -13 5 -8
-14 4 -38 13 -55 20 -24 11 -25 13 -5 8 14 -4 39 -13 55 -20z m445 -9 c-7 -9
-15 -13 -19 -10 -3 3 1 10 9 15 21 14 24 12 10 -5z m-13 -41 c-3 -3 -12 -4
-19 -1 -8 3 -5 6 6 6 11 1 17 -2 13 -5z m-74 -11 c-23 -2 -64 -2 -90 0 -26 2
-7 3 42 3 50 0 71 -1 48 -3z"/>
<path d="M451 1669 c-44 -54 -36 -56 13 -2 21 24 34 43 29 43 -5 0 -24 -18
-42 -41z"/>
<path d="M340 1538 c-35 -37 -72 -106 -64 -119 4 -7 3 -9 -3 -6 -6 4 -13 -4
-16 -18 -2 -14 0 -28 4 -31 5 -3 9 0 9 5 0 6 6 10 13 9 8 -2 12 11 13 37 0 30
10 53 38 93 39 54 42 68 6 30z"/>
<path d="M386 1325 c4 -8 12 -15 20 -15 20 0 17 7 -6 20 -16 9 -18 8 -14 -5z"/>
<path d="M270 1225 c-6 -8 -10 -19 -8 -24 1 -6 8 1 15 14 13 28 11 31 -7 10z"/>
<path d="M330 1120 c-6 -12 -9 -24 -7 -27 3 -2 11 5 17 17 6 12 9 24 7 27 -3
2 -11 -5 -17 -17z"/>
<path d="M907 1553 c-4 -3 -7 -11 -7 -17 0 -6 5 -5 12 2 6 6 9 14 7 17 -3 3
-9 2 -12 -2z"/>
<path d="M1840 1716 c0 -31 6 -34 13 -6 3 11 1 23 -4 26 -5 3 -9 -6 -9 -20z"/>
<path d="M1780 1700 c8 -6 24 -15 35 -21 16 -8 15 -6 -4 10 -13 12 -28 21 -35
21 -6 0 -4 -5 4 -10z"/>
<path d="M1770 1542 c0 -5 7 -15 15 -22 8 -7 15 -8 15 -2 0 5 -7 15 -15 22 -8
7 -15 8 -15 2z"/>
<path d="M673 1712 c-8 -5 -8 -12 3 -26 7 -11 17 -17 20 -13 4 4 2 13 -5 21
-9 11 -9 15 1 19 7 3 9 6 3 6 -5 0 -15 -3 -22 -7z"/>
<path d="M730 1672 c0 -12 19 -26 26 -19 2 2 -2 10 -11 17 -9 8 -15 8 -15 2z"/>
<path d="M610 1594 c0 -10 53 -54 65 -54 3 0 5 5 5 10 0 6 -5 10 -12 10 -6 0
-22 10 -35 22 -13 12 -23 17 -23 12z"/>
<path d="M1022 1185 c6 -13 15 -22 19 -19 9 5 -11 44 -23 44 -4 0 -3 -11 4
-25z"/>
<path d="M1049 1123 c16 -28 51 -69 51 -60 0 12 -44 77 -53 77 -4 0 -3 -8 2
-17z"/>
<path d="M1090 1121 c0 -5 7 -15 17 -22 15 -13 15 -12 4 9 -12 23 -21 28 -21
13z"/>
<path d="M1607 669 c7 -7 15 -10 18 -7 3 3 -2 9 -12 12 -14 6 -15 5 -6 -5z"/>
<path d="M2206 1139 c-21 -22 -35 -43 -32 -47 3 -3 7 -3 9 -1 1 2 17 21 36 41
19 21 32 40 29 43 -3 3 -22 -13 -42 -36z"/>
</g>
</svg>
